#N canvas 0 28 1920 992 12;
#X obj 80 99 +;
#X msg 61 55 1;
#X msg 110 56 2;
#X obj 56 9 bng 20 250 50 0 empty empty empty 0 -10 0 12 #fcfcfc #000000 #000000;
#X floatatom 68 161 5 0 0 0 - - - 0;
#X obj 174 66 t b;
#X obj 460 219 dac~;
#X obj 460 182 osc~;
#X floatatom 280 115 5 0 0 0 - - - 0;
#X obj 773 306 metro 500;
#N canvas 0 50 450 250 (subpatch) 0;
#X array \$0-array 200 float 0;
#X coords 0 -1 199 1 200 100 1;
#X restore 927 291 graph;
#X obj 763 343 tabwrite~ \$0-array;
#X obj 722 376 output~;
#X obj 773 278 tgl 19 0 empty empty empty 17 7 0 10 #dfdfdf #000000 #000000 0 1;
#X obj 723 243 osc~ 440;
#X msg 775 211 0;
#X msg 809 211 0.5;
#X text 504 251 set frequency;
#X text 789 243 <-- creation argument sets initial frequency;
#X text 797 278 <-- graph;
#X text 844 210 <-- reset phase;
#X text 599 298 (note it also takes signals), f 14;
#X floatatom 341 113 8 0 0 0 - - - 0;
#X floatatom 420 118 17 0 0 0 - - - 0;
#X msg 779 132 659.255;
#X msg 705 132 554.365;
#X msg 634 113 440;
#X msg 94 442 1;
#X obj 61 276 bng 20 250 50 0 empty banana empty 0 -10 0 12 #fcfcfc #000000 #000000;
#X obj 96 508 +;
#X obj 79 374 metro;
#X floatatom 90 592 5 0 0 0 - - - 0;
#X floatatom 184 486 5 0 0 0 - - - 0;
#X msg 113 301 stop;
#X msg 213 280 0;
#X obj 92 639 % 3;
#X floatatom 25 669 5 0 0 0 - - - 0;
#X obj 691 71 sel 0 1 2;
#X obj 47 701 s selector;
#X obj 685 29 r selector;
#X floatatom 487 77 5 0 0 0 - - - 0;
#X msg 136 348 600;
#X obj 405 363 s banana;
#X obj 403 320 bng 20 250 50 0 empty empty empty 0 -10 0 12 #fcfcfc #000000 #000000;
#X obj 635 256 osc~ 440;
#X obj 549 193 / 2;
#X connect 0 0 4 0;
#X connect 1 0 0 0;
#X connect 2 0 0 1;
#X connect 3 0 1 0;
#X connect 9 0 11 0;
#X connect 13 0 9 0;
#X connect 14 0 11 0;
#X connect 14 0 12 0;
#X connect 15 0 14 1;
#X connect 16 0 14 1;
#X connect 24 0 14 0;
#X connect 24 0 45 0;
#X connect 25 0 14 0;
#X connect 25 0 45 0;
#X connect 26 0 14 0;
#X connect 26 0 45 0;
#X connect 27 0 29 0;
#X connect 28 0 30 0;
#X connect 29 0 31 0;
#X connect 30 0 27 0;
#X connect 30 0 32 0;
#X connect 31 0 32 0;
#X connect 31 0 35 0;
#X connect 32 0 29 1;
#X connect 33 0 30 0;
#X connect 34 0 32 0;
#X connect 34 0 31 0;
#X connect 35 0 36 0;
#X connect 36 0 38 0;
#X connect 37 0 26 0;
#X connect 37 1 25 0;
#X connect 37 2 24 0;
#X connect 39 0 40 0;
#X connect 39 0 37 0;
#X connect 41 0 30 1;
#X connect 43 0 42 0;
