#N canvas 0 28 1920 992 12;
#X obj 730 284 osc~ 440;
#X msg 782 252 0;
#X msg 816 252 0.5;
#X msg 786 173 659.255;
#X msg 712 173 554.365;
#X msg 641 154 440;
#X msg 292 226 1;
#X obj 260 60 bng 20 250 50 0 empty start empty 0 -10 0 12 #fcfcfc #000000 #000000;
#X obj 294 292 +;
#X obj 277 158 metro;
#X floatatom 288 376 5 0 0 0 - - - 0;
#X floatatom 382 270 5 0 0 0 - - - 0;
#X msg 199 109 stop;
#X msg 411 64 0;
#X obj 290 423 % 3;
#X floatatom 223 453 5 0 0 0 - - - 0;
#X obj 698 112 sel 0 1 2;
#X obj 245 485 s selector;
#X obj 692 70 r selector;
#X floatatom 494 118 5 0 0 0 - - - 0;
#X msg 334 132 600;
#X obj 291 27 loadbang;
#X obj 729 417 dac~;
#X connect 0 0 22 0;
#X connect 0 0 22 1;
#X connect 1 0 0 1;
#X connect 2 0 0 1;
#X connect 3 0 0 0;
#X connect 4 0 0 0;
#X connect 5 0 0 0;
#X connect 6 0 8 0;
#X connect 7 0 9 0;
#X connect 8 0 10 0;
#X connect 9 0 6 0;
#X connect 9 0 11 0;
#X connect 10 0 11 0;
#X connect 10 0 14 0;
#X connect 11 0 8 1;
#X connect 12 0 9 0;
#X connect 13 0 11 0;
#X connect 13 0 10 0;
#X connect 14 0 15 0;
#X connect 15 0 17 0;
#X connect 16 0 5 0;
#X connect 16 1 4 0;
#X connect 16 2 3 0;
#X connect 18 0 19 0;
#X connect 18 0 16 0;
#X connect 20 0 9 1;
#X connect 21 0 9 0;
#X connect 21 0 20 0;
#X connect 21 0 13 0;
