#N canvas 0 28 1920 992 12;
#X obj 250 150 osc~;
#X obj 216 201 dac~;
#X obj 70 69 bng 20 250 50 0 empty start empty 0 -10 0 12 #fcfcfc #000000 #000000;
#X obj 219 59 r freq;
#X floatatom 235 109 5 0 0 0 - - - 0;
#X obj 65 151 s freq;
#X msg 78 112 220, f 5;
#X connect 0 0 1 0;
#X connect 0 0 1 1;
#X connect 2 0 6 0;
#X connect 3 0 4 0;
#X connect 4 0 0 0;
#X connect 6 0 5 0;
